<?xml version="1.0" encoding="UTF-8" standalone="no"?>
<svg
   width="16"
   height="16"
   fill="currentColor"
   class="bi bi-zoom-out"
   viewBox="0 0 16 16"
   version="1.1"
   id="svg8"
   sodipodi:docname="zoom-out.svg"
   inkscape:version="1.1.2 (b8e25be8, 2022-02-05)"
   xmlns:inkscape="http://www.inkscape.org/namespaces/inkscape"
   xmlns:sodipodi="http://sodipodi.sourceforge.net/DTD/sodipodi-0.dtd"
   xmlns="http://www.w3.org/2000/svg"
   xmlns:svg="http://www.w3.org/2000/svg">
  <defs
     id="defs12" />
  <sodipodi:namedview
     id="namedview10"
     pagecolor="#ffffff"
     bordercolor="#666666"
     borderopacity="1.0"
     inkscape:pageshadow="2"
     inkscape:pageopacity="0.0"
     inkscape:pagecheckerboard="0"
     showgrid="false"
     inkscape:zoom="44.9375"
     inkscape:cx="7.9888734"
     inkscape:cy="8.2670376"
     inkscape:window-width="1441"
     inkscape:window-height="969"
     inkscape:window-x="0"
     inkscape:window-y="25"
     inkscape:window-maximized="0"
     inkscape:current-layer="svg8" />
  <path
     fill-rule="evenodd"
     d="M6.5 12a5.5 5.5 0 1 0 0-11 5.5 5.5 0 0 0 0 11zM13 6.5a6.5 6.5 0 1 1-13 0 6.5 6.5 0 0 1 13 0z"
     id="path2" />
  <path
     d="M10.344 11.742c.03.04.062.078.098.115l3.85 3.85a1 1 0 0 0 1.415-1.414l-3.85-3.85a1.007 1.007 0 0 0-.115-.1 6.538 6.538 0 0 1-1.398 1.4z"
     id="path4" />
  <path
     fill-rule="evenodd"
     d="M3 6.5a.5.5 0 0 1 .5-.5h6a.5.5 0 0 1 0 1h-6a.5.5 0 0 1-.5-.5z"
     id="path6" />
  <path
     style="fill:#ffffff;stroke-width:0.0222531"
     d="M 6.0305981,12.971257 C 3.9347643,12.822087 2.0105806,11.63277 0.92712107,9.8168552 0.4572747,9.0293768 0.16466732,8.1649464 0.05552963,7.2419714 0.01101368,6.865501 0.01104299,6.1300804 0.05558897,5.753349 0.20118131,4.5220544 0.67640142,3.3944737 1.4580762,2.4255911 1.6927304,2.1347383 2.1894071,1.6397813 2.4700974,1.417074 3.5217284,0.58268157 4.8310798,0.08872001 6.1585535,0.02557925 7.8098891,-0.05296586 9.343218,0.45050323 10.614743,1.4887704 12.784724,3.2606752 13.564568,6.260308 12.535798,8.8780208 11.752904,10.8701 9.9784725,12.381907 7.8887344,12.837295 7.2709675,12.971917 6.6593702,13.01601 6.0305981,12.971257 Z m 1.1411791,-1.00077 C 8.1650239,11.848158 9.1986392,11.411055 9.9617682,10.790635 11.675465,9.3974095 12.405719,7.098015 11.802112,4.9958275 11.189116,2.8609402 9.4068455,1.3271586 7.1988873,1.0343967 6.8447615,0.9874418 6.151066,0.9874418 5.7969402,1.0343967 3.7543377,1.3052334 2.0640305,2.6467371 1.3333808,4.5768781 0.8840496,5.7638663 0.88198322,7.2063466 1.3278908,8.4116829 c 0.1900254,0.513663 0.5494742,1.1430242 0.8927546,1.5631292 0.957136,1.1713399 2.3287575,1.8926429 3.8408071,2.0197899 0.257969,0.02169 0.8412569,0.009 1.1103281,-0.02412 z"
     id="path131" />
  <path
     style="fill:#ffffff;stroke-width:0.0222531"
     d="M 3.349096,6.9638728 C 3.1661407,6.9101702 3.0170318,6.6999686 3.0185623,6.4979138 c 0.00155,-0.2046745 0.1022191,-0.3548176 0.297154,-0.4431927 0.099226,-0.044985 0.1281203,-0.045403 3.1684891,-0.045888 2.3540326,-3.749e-4 3.0896734,0.00584 3.1599444,0.026712 0.1781683,0.05291 0.3475053,0.2808249 0.3475053,0.4677156 0,0.1669271 -0.1346702,0.3650404 -0.3004173,0.441944 -0.085413,0.03963 -0.2140938,0.041239 -3.1821975,0.039782 C 4.7971131,6.9841466 3.386044,6.9747182 3.349096,6.9638728 Z"
     id="path170" />
  <path
     style="fill:#ffffff;stroke-width:0.0222531"
     d="m 14.720445,15.94775 c -0.234436,-0.07751 -0.264863,-0.105819 -2.31996,-2.158381 -1.116868,-1.115491 -2.028133,-2.034273 -2.025034,-2.041739 0.0031,-0.0075 0.109855,-0.09716 0.237236,-0.199321 0.291736,-0.233974 0.703508,-0.64617 0.939613,-0.940584 0.09996,-0.124652 0.187902,-0.229188 0.195415,-0.232303 0.0075,-0.0031 0.930618,0.913158 2.051345,2.036161 2.354946,2.35973 2.16756,2.136082 2.16756,2.587026 0,0.24177 -0.0039,0.264222 -0.07124,0.40631 -0.09878,0.208539 -0.263866,0.376523 -0.470272,0.478534 -0.154525,0.07637 -0.182724,0.08272 -0.391091,0.08802 -0.141532,0.0036 -0.257468,-0.0052 -0.31357,-0.02372 z"
     id="path209" />
</svg>
